<svg xmlns="http://www.w3.org/2000/svg" xmlns:xlink="http://www.w3.org/1999/xlink">
	<defs>
		<symbol id="discord" viewBox="0 0 24 24">
			<path fill="currentColor" d="M20.33 4.523A19.849 19.849 0 0 0 15.38 3a13.61 13.61 0 0 0-.634 1.29 18.439 18.439 0 0 0-5.495 0c-.189-.441-.4-.872-.635-1.29A19.989 19.989 0 0 0 3.66 4.527C.527 9.163-.323 13.684.102 18.141a19.959 19.959 0 0 0 6.073 3.049 14.67 14.67 0 0 0 1.3-2.098 12.907 12.907 0 0 1-2.048-.977c.172-.125.34-.253.502-.378a14.264 14.264 0 0 0 12.142 0c.164.134.332.263.502.378-.654.386-1.34.713-2.052.98.373.733.808 1.434 1.3 2.095a19.869 19.869 0 0 0 6.077-3.047c.498-5.168-.851-9.648-3.568-13.62ZM8.013 15.4c-1.183 0-2.161-1.074-2.161-2.395 0-1.322.944-2.405 2.157-2.405 1.214 0 2.184 1.083 2.164 2.405-.021 1.321-.954 2.395-2.16 2.395Zm7.974 0c-1.186 0-2.16-1.074-2.16-2.395 0-1.322.944-2.405 2.16-2.405 1.215 0 2.178 1.083 2.157 2.405-.02 1.321-.951 2.395-2.157 2.395Z"/>
		</symbol>
		<symbol id="banner-close" viewBox="0 0 24 25">
			<path fill-rule="evenodd" clip-rule="evenodd" d="M19 6.91L17.59 5.5L12 11.09L6.41 5.5L5 6.91L10.59 12.5L5 18.09L6.41 19.5L12 13.91L17.59 19.5L19 18.09L13.41 12.5L19 6.91Z" fill="currentColor"></path>
		</symbol>
	</defs>
</svg>