<svg width="936" height="477" viewBox="0 0 936 477" fill="none" xmlns="http://www.w3.org/2000/svg">
<path d="M162.4 350V116.074H304.193V150.052H198.338V218.662H293.738V252.64H198.338V350H162.4ZM318.87 350V116.074H354.155V350H318.87ZM457.199 355.227C439.992 355.227 424.855 351.307 411.786 343.466C398.718 335.625 388.481 325.061 381.075 311.775C373.67 298.271 369.967 283.242 369.967 266.688C369.967 250.135 373.67 235.215 381.075 221.929C388.481 208.425 398.718 197.752 411.786 189.911C424.855 182.07 439.992 178.149 457.199 178.149C474.188 178.149 489.217 182.179 502.285 190.238C515.354 198.079 525.591 208.642 532.996 221.929C540.402 235.215 544.105 250.135 544.105 266.688C544.105 283.242 540.402 298.271 532.996 311.775C525.591 325.061 515.354 335.625 502.285 343.466C489.217 351.307 474.188 355.227 457.199 355.227ZM457.199 322.883C466.347 322.883 474.842 320.705 482.683 316.349C490.524 311.775 496.84 305.349 501.632 297.073C506.642 288.578 509.146 278.45 509.146 266.688C509.146 254.927 506.642 244.908 501.632 236.631C496.84 228.136 490.524 221.711 482.683 217.355C474.842 212.781 466.347 210.494 457.199 210.494C448.051 210.494 439.448 212.781 431.389 217.355C423.548 221.711 417.122 228.136 412.113 236.631C407.321 244.908 404.925 254.927 404.925 266.688C404.925 278.45 407.321 288.578 412.113 297.073C417.122 305.349 423.657 311.775 431.716 316.349C439.774 320.705 448.269 322.883 457.199 322.883ZM592.019 350L538.765 183.377H576.99L611.295 303.28H612.602L650.174 183.377H686.439L724.011 303.28H725.318L759.622 183.377H797.194L743.613 350H706.695L668.143 229.443H666.836L628.611 350H592.019Z" fill="white"/>
</svg>
